<svg width="22" height="24" viewBox="0 0 22 24" fill="none" xmlns="http://www.w3.org/2000/svg">
<g clip-path="url(#clip0_2_5109)">
<path fill-rule="evenodd" clip-rule="evenodd" d="M21.3333 15.7686C19.8827 19.8726 15.9688 22.8129 11.3681 22.8129C6.76737 22.8129 2.85339 19.8726 1.40283 15.7686H21.3333Z" fill="#D90012"/>
<path fill-rule="evenodd" clip-rule="evenodd" d="M21.333 15.7684C21.7224 14.6668 21.9343 13.4813 21.9343 12.2463C21.9343 11.0113 21.7224 9.82579 21.333 8.72412H1.40252C1.01314 9.82579 0.80127 11.0113 0.80127 12.2463C0.80127 13.4813 1.01314 14.6668 1.40252 15.7684H21.333Z" fill="#0033A0"/>
<path fill-rule="evenodd" clip-rule="evenodd" d="M21.3333 8.72428H1.40283C2.85339 4.62027 6.76737 1.67993 11.3681 1.67993C15.9688 1.67993 19.8827 4.62027 21.3333 8.72428Z" fill="#F8F8F8"/>
</g>
<defs>
<clipPath id="clip0_2_5109">
<rect width="21.133" height="22.5419" fill="white" transform="translate(0.80127 0.871094)"/>
</clipPath>
</defs>
</svg>
