<svg width="30" height="31" viewBox="0 0 30 31" fill="none" xmlns="http://www.w3.org/2000/svg">
<g clip-path="url(#clip0_2_5167)">
<path d="M1.95555 13.7736C1.3774 14.6496 1.07254 15.6776 1.07965 16.7272C1.07965 17.9721 1.53196 19.0534 2.43658 19.9724C3.34119 20.8899 4.41094 21.3494 5.64868 21.3494L8.78899 21.3494C8.21894 22.544 7.93176 23.7042 7.93176 24.8286C7.93176 26.2415 8.1414 27.3644 8.55781 28.1986C8.94066 28.9985 9.58145 29.6464 10.3771 30.038C11.1754 30.43 12.0729 30.6267 13.0723 30.6267C13.6797 30.6267 14.2138 30.4027 14.6776 29.9561C15.1902 29.4493 15.5578 28.7959 15.7832 27.999C15.9999 27.2438 16.182 26.4791 16.3289 25.7073C16.4653 24.975 16.6764 24.4581 16.9621 24.1566C17.5451 23.5176 18.1826 22.7436 18.8719 21.8376C20.0737 20.2552 20.8879 19.319 21.3158 19.029H26.205C26.8368 19.029 27.3752 18.8021 27.8204 18.3498C28.0371 18.1359 28.2082 17.8803 28.3235 17.5985C28.4387 17.3167 28.4957 17.0144 28.4909 16.71L28.4909 5.11225C28.4909 4.47184 28.2684 3.92476 27.8218 3.47246C27.3767 3.01871 26.8382 2.79327 26.2064 2.79327H21.0673C20.8046 2.79327 19.9847 2.55061 18.6048 2.06815C17.1402 1.54835 15.8536 1.15204 14.7408 0.880659C13.6341 0.609421 12.4987 0.472502 11.3592 0.472864H9.0575C7.38037 0.472864 6.02919 0.959635 5.00683 1.93174C3.98447 2.90528 3.4776 4.22917 3.48909 5.90917C2.77545 6.83963 2.41935 7.91512 2.41935 9.13563C2.4189 9.39597 2.43665 9.65602 2.47248 9.91389C2.02017 10.7237 1.79473 11.5939 1.79473 12.5229C1.79306 12.9451 1.84713 13.3656 1.95555 13.7736Z" fill="#E8E8E8"/>
</g>
<defs>
<clipPath id="clip0_2_5167">
<rect width="28.7179" height="30.1538" fill="white" transform="matrix(-1 0 0 -1 29.3384 30.6267)"/>
</clipPath>
</defs>
</svg>
