<svg width="30" height="31" viewBox="0 0 30 31" fill="none" xmlns="http://www.w3.org/2000/svg">
<g clip-path="url(#clip0_2_5162)">
<path d="M27.8843 17.1466C28.4624 16.2706 28.7673 15.2425 28.7602 14.1929C28.7602 12.948 28.3079 11.8668 27.4033 10.9478C26.4987 10.0303 25.4289 9.57079 24.1912 9.57079H21.0509C21.6209 8.37612 21.9081 7.21592 21.9081 6.09161C21.9081 4.67869 21.6984 3.55582 21.282 2.72156C20.8992 1.92166 20.2584 1.2738 19.4628 0.882175C18.6644 0.490175 17.767 0.293457 16.7676 0.293457C16.1602 0.293457 15.626 0.517457 15.1622 0.964021C14.6496 1.47089 14.282 2.12423 14.0566 2.92115C13.8399 3.67634 13.6579 4.44104 13.511 5.21284C13.3745 5.94515 13.1635 6.46207 12.8777 6.76361C12.2948 7.40259 11.6572 8.17653 10.968 9.08258C9.76614 10.6649 8.95198 11.6011 8.52409 11.8912H3.63486C3.00306 11.8912 2.4646 12.1181 2.01947 12.5704C1.80275 12.7843 1.63161 13.0398 1.51636 13.3216C1.40111 13.6035 1.34415 13.9057 1.34891 14.2102V25.8079C1.34891 26.4483 1.57147 26.9954 2.01804 27.4477C2.46316 27.9015 3.00163 28.1269 3.63342 28.1269H8.7725C9.03527 28.1269 9.85516 28.3696 11.2351 28.852C12.6997 29.3718 13.9862 29.7681 15.0991 30.0395C16.2058 30.3107 17.3411 30.4477 18.4806 30.4473H20.7823C22.4595 30.4473 23.8107 29.9605 24.833 28.9884C25.8554 28.0149 26.3622 26.691 26.3508 25.011C27.0644 24.0805 27.4205 23.005 27.4205 21.7845C27.4209 21.5242 27.4032 21.2641 27.3674 21.0063C27.8197 20.1964 28.0451 19.3263 28.0451 18.3973C28.0468 17.9751 27.9927 17.5546 27.8843 17.1466Z" fill="#E8E8E8"/>
</g>
<defs>
<clipPath id="clip0_2_5162">
<rect width="28.7179" height="30.1538" fill="white" transform="translate(0.501953 0.293457)"/>
</clipPath>
</defs>
</svg>
