<svg width="99" height="25" viewBox="0 0 99 25" fill="none" xmlns="http://www.w3.org/2000/svg">
<g clip-path="url(#clip0_10_6456)">
<path d="M44.8359 13.7032H46.3033V3.97234H50.9885V13.7032H52.4816V2.50499H44.8359V13.7032Z" fill="white"/>
<path d="M59.6121 2.29906C58.0418 2.29906 56.6774 2.8654 55.5447 3.97235C54.4121 5.10505 53.8457 6.46943 53.8457 8.03975C53.8457 9.63582 54.412 11.0517 55.519 12.1844C56.6259 13.3428 58.0161 13.9092 59.6121 13.9092C61.2339 13.9092 62.6241 13.3428 63.7053 12.1844C64.7865 11.0517 65.3528 9.63582 65.3528 8.01401C65.3528 6.44368 64.8122 5.05356 63.7053 3.94661C62.5468 2.8654 61.2082 2.29906 59.6121 2.29906ZM62.5983 11.1547C61.826 12.0299 60.8221 12.4675 59.5607 12.4675C58.4022 12.4675 57.3725 12.0299 56.5745 11.1547C55.7764 10.2794 55.3645 9.24967 55.3645 8.06549C55.3645 6.9328 55.7764 5.92882 56.6002 5.0793C57.424 4.22978 58.4022 3.79215 59.5607 3.79215C60.6933 3.79215 61.6716 4.20404 62.4954 5.05356C63.3191 5.90308 63.731 6.88131 63.731 8.03975C63.7568 9.24967 63.3706 10.3051 62.5983 11.1547Z" fill="white"/>
<path d="M72.3547 3.30301C71.6854 2.78815 70.8102 2.53072 69.7032 2.53072H66.6655V13.7289H68.1071V9.14667H69.4973C70.6299 9.14667 71.5567 8.8635 72.2518 8.3229C72.9983 7.73081 73.3845 6.88129 73.3845 5.74859C73.4102 4.69313 73.0498 3.86935 72.3547 3.30301ZM69.42 7.80803H68.1586V3.86935H69.4973C71.1191 3.86935 71.9686 4.53867 71.9686 5.90305C71.9428 7.16446 71.0676 7.80803 69.42 7.80803Z" fill="white"/>
<path d="M79.795 2.50499H73.7969V3.89511H76.0623V13.7032H77.5296V3.89511H79.795V2.50499Z" fill="white"/>
<path d="M83.1937 2.50499L78.8174 13.7289H80.4135L81.6491 10.4338H86.2314L87.467 13.7289H89.0631L84.7383 2.50499H83.1937ZM82.164 9.04372L83.9402 4.38423L85.6908 9.04372H82.164Z" fill="white"/>
<path d="M94.468 2.50499H93.0006L88.959 13.7032H90.5551L93.7729 4.35849L96.9908 13.7032H98.5354L94.468 2.50499Z" fill="white"/>
<path d="M7.86902 9.86748L4.88283 0.599991H0.81543V13.9864H3.6729V6.31494C3.6729 6.03177 3.64716 5.61988 3.62142 5.05353C3.59568 4.48719 3.56993 4.0753 3.56993 3.79213L3.59568 3.76638L6.78781 13.9864H8.84725L12.0909 3.81787L12.1166 3.79213C12.1166 4.0753 12.0909 4.51293 12.0651 5.05353C12.0394 5.61988 12.0136 6.03177 12.0136 6.31494V13.9864H14.8711V0.599991H10.8037L7.86902 9.86748Z" fill="#FF0000"/>
<path d="M18.0371 13.9864H25.3481V11.2576H21.0748V8.52884H25.2452V5.82582H21.0748V3.30301H25.3481V0.599991H18.0371V13.9864Z" fill="#FF0000"/>
<path d="M37.9105 2.402C36.752 1.19208 35.1302 0.599991 33.0965 0.599991H28.2568V13.9864H32.6331C34.847 13.9864 36.5461 13.42 37.7818 12.3131C39.0432 11.1546 39.661 9.48133 39.661 7.29318C39.6867 5.23373 39.0689 3.63767 37.9105 2.402ZM32.9163 11.3091H31.2945V3.30301H32.9421C34.152 3.30301 35.1045 3.66341 35.7481 4.40996C36.3659 5.10502 36.6491 6.08325 36.6491 7.34466C36.6491 9.97045 35.4134 11.3091 32.9163 11.3091Z" fill="#FF0000"/>
<path d="M5.55215 19.83H4.59965V17.2557C4.59965 17.1528 4.59965 17.0241 4.6254 16.8181C4.6254 16.6379 4.65114 16.4834 4.65114 16.3805L3.56993 19.83H2.87487L1.74218 16.3805C1.74218 16.4834 1.74218 16.6122 1.76792 16.8181C1.76792 16.9983 1.79366 17.1528 1.79366 17.2557V19.8558H0.81543V15.325H2.17981L3.18379 18.4657L4.18777 15.325H5.55215V19.83Z" fill="white"/>
<path d="M13.7633 19.83H11.292V15.325H13.7633V16.226H12.3217V17.0755H13.7376V17.9765H12.3217V18.9033H13.7633V19.83Z" fill="white"/>
<path d="M23.2888 17.5647C23.2888 18.2855 23.0829 18.8518 22.6453 19.238C22.2334 19.6241 21.667 19.8043 20.9205 19.8043H19.4531V15.325H21.0749C21.77 15.325 22.3106 15.531 22.6967 15.9428C23.0829 16.329 23.2888 16.8696 23.2888 17.5647ZM22.2334 17.5647C22.2334 17.1528 22.1304 16.8181 21.9245 16.5864C21.7185 16.329 21.3839 16.2003 20.9977 16.2003H20.4314V18.929H20.972C21.8215 18.929 22.2334 18.4657 22.2334 17.5647Z" fill="white"/>
<path d="M29.8788 19.83H28.8491V15.325H29.8788V19.83Z" fill="white"/>
<path d="M39.6869 19.83H38.5543L38.2711 19.0063H36.6493L36.3403 19.83H35.2334L37.0354 15.2993H37.8592L39.6869 19.83ZM37.9622 18.1567L37.4473 16.5349L36.9324 18.1567H37.9622Z" fill="white"/>
<path d="M0.969888 21.1172H0.81543V24.7984H0.969888H1.17583H1.35603V21.1172H1.17583H0.969888Z" fill="white"/>
<path d="M2.7207 22.8935H2.9009H3.10685H3.28705V21.1172H2.7207V22.8935Z" fill="white"/>
<path d="M4.65039 22.8935H4.80485H5.01079H5.16525V21.1172H4.65039V22.8935Z" fill="white"/>
<path d="M6.55615 22.8935H6.71061H6.9423H7.09676V21.1172H6.55615V22.8935Z" fill="white"/>
<path d="M8.48682 22.8935H8.64127H8.84722H9.00168V21.1172H8.48682V22.8935Z" fill="white"/>
<path d="M10.5465 21.1172H10.3921V24.7984H10.5465H10.7525H10.9327V21.1172H10.7525H10.5465Z" fill="white"/>
<path d="M12.3228 22.8935H12.4772H12.6832H12.8376V21.1172H12.3228V22.8935Z" fill="white"/>
<path d="M14.2012 22.8935H14.3814H14.5873H14.7418V21.1172H14.2012V22.8935Z" fill="white"/>
<path d="M16.1323 22.8935H16.3125H16.5185H16.6729V21.1172H16.1323V22.8935Z" fill="white"/>
<path d="M18.0371 22.8935H18.2173H18.4233H18.5777V21.1172H18.0371V22.8935Z" fill="white"/>
<path d="M20.1485 21.1172H19.9683V24.7984H20.1485H20.3544H20.5089V21.1172H20.3544H20.1485Z" fill="white"/>
<path d="M21.8735 22.8935H22.0537H22.2597H22.4141V21.1172H21.8735V22.8935Z" fill="white"/>
<path d="M23.8032 22.8935H23.9577H24.1894H24.3438V21.1172H23.8032V22.8935Z" fill="white"/>
<path d="M25.709 22.8935H25.8634H26.0951H26.2496V21.1172H25.709V22.8935Z" fill="white"/>
<path d="M27.6392 22.8935H27.7936H28.0253H28.1798V21.1172H27.6392V22.8935Z" fill="white"/>
<path d="M29.6989 21.1172H29.5444V24.7984H29.6989H29.9306H30.085V21.1172H29.9306H29.6989Z" fill="white"/>
<path d="M31.4756 22.8935H31.63H31.8617H32.0162V21.1172H31.4756V22.8935Z" fill="white"/>
<path d="M33.3804 22.8935H33.5348H33.7665H33.921V21.1172H33.3804V22.8935Z" fill="white"/>
<path d="M35.3105 22.8935H35.465H35.6967H35.8512V21.1172H35.3105V22.8935Z" fill="white"/>
<path d="M37.2158 22.8935H37.3703H37.602H37.7564V21.1172H37.2158V22.8935Z" fill="white"/>
<path d="M39.3014 21.1172H39.147V24.7984H39.3014H39.5331H39.6876V21.1172H39.5331H39.3014Z" fill="white"/>
</g>
<defs>
<clipPath id="clip0_10_6456">
<rect width="97.7205" height="24.1984" fill="white" transform="translate(0.81543 0.599991)"/>
</clipPath>
</defs>
</svg>
