<svg width="17" height="17" viewBox="0 0 17 17" fill="none" xmlns="http://www.w3.org/2000/svg">
<path d="M16.83 16.15L10.965 10.285C13.005 7.81999 12.92 4.165 10.625 1.87C9.435 0.679997 7.90499 0.0849915 6.20499 0.0849915C4.50499 0.0849915 2.97501 0.764997 1.78501 1.87C0.595005 3.06 0 4.58998 0 6.28998C0 7.98998 0.680005 9.51999 1.78501 10.71C2.97501 11.9 4.50499 12.495 6.20499 12.495C7.64999 12.495 9.095 11.985 10.2 11.05L16.065 16.915C16.15 17 16.32 17.085 16.405 17.085C16.575 17.085 16.66 17 16.745 16.915C17.085 16.66 17.085 16.32 16.83 16.15ZM2.55 9.85999C1.615 8.92499 1.02001 7.56498 1.02001 6.20498C1.02001 4.84498 1.53 3.56999 2.55 2.54999C3.485 1.61499 4.84499 1.02 6.20499 1.02C7.56499 1.02 8.84 1.52999 9.86 2.54999C11.9 4.58999 11.9 7.81999 9.86 9.85999C8.925 10.795 7.56499 11.39 6.20499 11.39C4.84499 11.39 3.57 10.88 2.55 9.85999Z" fill="white"/>
</svg>
